<svg xmlns="http://www.w3.org/2000/svg" xmlns:xlink="http://www.w3.org/1999/xlink" viewBox="0 0 125 125"><defs><linearGradient id="Silver_04" x1="1.2431" y1="62.5" x2="123.7569" y2="62.5" gradientUnits="userSpaceOnUse"><stop offset="0" stop-color="#cbd1d6"/><stop offset="0.0891" stop-color="#c7ced2"/><stop offset="0.1696" stop-color="#bcc3c7"/><stop offset="0.2468" stop-color="#aab1b5"/><stop offset="0.2477" stop-color="#aab1b5"/><stop offset="0.2905" stop-color="#cad1d5"/><stop offset="0.3318" stop-color="#e1e8ec"/><stop offset="0.3706" stop-color="#eff6f9"/><stop offset="0.4045" stop-color="#f4fbfe"/><stop offset="0.6348" stop-color="#f4fbfe"/><stop offset="0.7528" stop-color="#979da1"/><stop offset="0.8258" stop-color="#b0b7bc"/><stop offset="0.8472" stop-color="#959b9f"/><stop offset="0.8706" stop-color="#7d8387"/><stop offset="0.8923" stop-color="#6f7478"/><stop offset="0.9101" stop-color="#6a6f73"/><stop offset="0.9251" stop-color="#71767a"/><stop offset="0.947" stop-color="#84898e"/><stop offset="0.9732" stop-color="#a4a9ae"/><stop offset="1" stop-color="#cbd1d6"/></linearGradient><linearGradient id="linear-gradient" x1="3.2259" y1="132.0731" x2="139.7861" y2="-28.2147" gradientTransform="translate(0 125) rotate(-90)" xlink:href="#Silver_04"/><linearGradient id="linear-gradient-2" x1="143.8277" y1="143.8277" x2="-14.9804" y2="-14.9804" gradientTransform="translate(0 125) rotate(-90)" xlink:href="#Silver_04"/></defs><g id="BUTTON"><rect x="1.2431" y="1.2431" width="122.5138" height="122.5138" rx="19.0552" fill="url(#Silver_04)"/><path d="M20.2983,2.7432h84.4033a17.5552,17.5552,0,0,1,17.5552,17.5552v84.4033a17.5552,17.5552,0,0,1-17.5552,17.5552H20.2979A17.5547,17.5547,0,0,1,2.7432,104.7021V20.2983A17.5552,17.5552,0,0,1,20.2983,2.7432Z" transform="translate(125 0) rotate(90)" fill="url(#linear-gradient)"/><path d="M20.2983,4.7432h84.4033a15.5552,15.5552,0,0,1,15.5552,15.5552v84.4038a15.5547,15.5547,0,0,1-15.5547,15.5547H20.2979A15.5547,15.5547,0,0,1,4.7432,104.7021V20.2983A15.5552,15.5552,0,0,1,20.2983,4.7432Z" transform="translate(125 0) rotate(90)" fill="url(#linear-gradient-2)"/><path d="M20.2983,6.2432h84.4033a14.0552,14.0552,0,0,1,14.0552,14.0552v84.4038a14.0547,14.0547,0,0,1-14.0547,14.0547H20.2979A14.0547,14.0547,0,0,1,6.2432,104.7021V20.2983A14.0552,14.0552,0,0,1,20.2983,6.2432Z" transform="translate(125) rotate(90)" fill="#d1d3d4"/><path d="M104.7021,119.0068H20.2983A14.3212,14.3212,0,0,1,5.9932,104.7021V20.2983A14.3215,14.3215,0,0,1,20.2983,5.9932h84.4038a14.3212,14.3212,0,0,1,14.3047,14.3051v84.4038A14.3208,14.3208,0,0,1,104.7021,119.0068ZM20.2983,6.4932A13.8206,13.8206,0,0,0,6.4932,20.2983v84.4038a13.82,13.82,0,0,0,13.8051,13.8047h84.4038a13.82,13.82,0,0,0,13.8047-13.8047V20.2983A13.82,13.82,0,0,0,104.7021,6.4932Z" fill="#414042"/></g><g id="BEACH"><path d="M72.7347,20.65c.5414.3085,1.2067.003,1.8612.4057a21.2563,21.2563,0,0,0-3.2833,2.9317,45.0967,45.0967,0,0,0-7.4245,12.0134C63.0028,37.973,62.2567,40,61.5273,42.0338c-.3557.9918-.8346,1.141-1.6816.5241a8.3072,8.3072,0,0,1-.9551-.8734,15.0674,15.0674,0,0,0-15.6871-4.14,4.6818,4.6818,0,0,1-1.2631.2679c-1.17-.0026-1.5775-.6577-1.0081-1.6769a27.2769,27.2769,0,0,1,6.7907-7.9994A34.138,34.138,0,0,1,66.2583,20.794c.2551-.0248.5057-.0952.7585-.1443Z" fill="#414042"/><path d="M106.8691,54.4336c-.4612.72-1.0655.6807-1.7168.3082a5.4315,5.4315,0,0,1-1.09-.9812,15.052,15.052,0,0,0-15.2142-4.2282,14.1491,14.1491,0,0,1-1.5948.3826c-.9767.1236-1.36-.26-1.1935-1.2362.3533-2.0757.7385-4.1461.9543-6.2419.5464-5.3083.6926-10.6008-.7734-15.8085-.2565-.9113-.6213-1.792-.9392-2.6958.123-.1328.2661-.0356.3813.0171,9.3061,4.2576,16.1831,10.8386,19.68,20.6317a25.3907,25.3907,0,0,1,1.367,6.3244,3.9775,3.9775,0,0,0,.1391.5825Z" fill="#414042"/><path d="M57.9428,77.4759a34.2777,34.2777,0,0,1,4.3268.1479c.6316.0724.8946-.135,1.0626-.7631q3.8856-14.5314,7.818-29.05c.5368-1.9933.5273-1.9958,2.54-1.4185,1.7669.5069,1.7714.5081,1.2954,2.2728Q71.1695,62.8121,67.35,76.9582c-.3123,1.157-.31,1.1508.8458,1.3481a59.17,59.17,0,0,1,21.1788,7.8952,27.1726,27.1726,0,0,1,4.62,3.49c.4456.4259.5266.6815-.1485.9374-1.0772.4085-2.1346.87-3.1933,1.3259a2.6178,2.6178,0,0,1-2.1773-.016c-1.19-.5157-2.4174-.9519-3.5787-1.5239a11.7751,11.7751,0,0,0-10.98.0148c-1.16.5734-2.3893,1.0074-3.58,1.5208a2.6475,2.6475,0,0,1-2.179-.0021c-1.2208-.5166-2.4775-.957-3.6678-1.5351a11.9755,11.9755,0,0,0-10.995-.0219c-1.1911.5763-2.4507,1.01-3.6664,1.5372a2.7779,2.7779,0,0,1-2.341-.02c-1.0551-.4636-2.1535-.8383-3.1784-1.3594a12.0759,12.0759,0,0,0-11.54-.0217c-1.0771.5454-2.2281.9439-3.3391,1.424a2.6109,2.6109,0,0,1-2.1771-.01c-1.0835-.4707-2.1705-.9348-3.27-1.3673-.5357-.2107-.4919-.4173-.1313-.7756A26.9184,26.9184,0,0,1,29.329,85.734,59.82,59.82,0,0,1,57.9428,77.4759Z" fill="#414042"/><path d="M18.1465,98.1241c0-.7506.0376-1.5036-.0113-2.2509-.042-.6427.2217-.7943.8059-.7245a17.73,17.73,0,0,1,4.7881,1.4324c1.1151.4714,2.2292.9453,3.3375,1.4326a3.0794,3.0794,0,0,0,2.5951-.01c1.1878-.5213,2.4087-.9721,3.5739-1.5388a11.5979,11.5979,0,0,1,10.66.037c1.2429.602,2.5474,1.0766,3.8232,1.611a2.4378,2.4378,0,0,0,1.9357.0015c1.4668-.6,2.9581-1.1476,4.3948-1.8128a11.4721,11.4721,0,0,1,10.1094.1051c1.02.4724,2.0919.8355,3.0941,1.34a4.2286,4.2286,0,0,0,4.0533-.0285c1.0544-.529,2.1809-.9125,3.2486-1.4173a11.2411,11.2411,0,0,1,10.0956.1446c.9632.4568,1.9772.8092,2.9284,1.288a4.1943,4.1943,0,0,0,3.97.0212c1.4246-.69,2.9112-1.2532,4.38-1.8491a12.841,12.841,0,0,1,3.1-.7568c.5312-.0732.7807.0573.765.6717-.04,1.5579-.0152,3.1174-.0116,4.6762.0007.33.012.6264-.4386.6965a19.4024,19.4024,0,0,0-4.1271,1.5149c-.3747.1494-.7484.3049-1.11.4839a9.757,9.757,0,0,1-9.0719-.0059c-1.0605-.5186-2.181-.9137-3.25-1.4167a5.352,5.352,0,0,0-4.7518.0038c-1.5194.6948-3.0743,1.3134-4.6238,1.94a8.2065,8.2065,0,0,1-6.3255.0052c-1.5525-.6193-3.1119-1.2272-4.633-1.9177a5.541,5.541,0,0,0-4.92-.0181c-1.0934.5176-2.2438.9154-3.3346,1.4379a9.8871,9.8871,0,0,1-9.08-.0416c-1.0337-.5074-2.1341-.8786-3.1709-1.38a5.4125,5.4125,0,0,0-4.91.0159c-1.462.6805-2.97,1.263-4.4636,1.8745a8.2842,8.2842,0,0,1-6.4866-.0129c-1.8681-.76-3.7215-1.5591-5.61-2.2631-1.3073-.4872-1.3293-.428-1.3293-1.8172Q18.1463,98.86,18.1465,98.1241Z" fill="#414042"/><path d="M85.039,37.1634a67.1408,67.1408,0,0,1-1.2438,10.8142c-.2072,1.0694-.6979,1.229-1.54.5152-.329-.2788-.6135-.61-.9221-.9131a15.0059,15.0059,0,0,0-15.1663-4.07c-.4463.1149-.8848.2738-1.3374.3469-1.03.1664-1.3413-.2122-1.01-1.2126A59.6266,59.6266,0,0,1,66.007,37.006a42.49,42.49,0,0,1,6.99-11.375A13.981,13.981,0,0,1,76.64,22.6c2.5174-1.368,4.5565-.8295,6.0469,1.6145a16.4592,16.4592,0,0,1,1.9954,6.3039A36.9461,36.9461,0,0,1,85.039,37.1634Z" fill="#414042"/><path d="M40.968,65.4321c-1.7412-.3262-3.2469-.5843-4.7406-.8991a1.7042,1.7042,0,0,0-1.71.45c-1.0434.9939-2.1944,1.8748-3.2422,2.8645-.5387.5089-.7341.3577-1.0214-.2167-.67-1.34-1.4117-2.6441-2.0992-3.9758a1.2566,1.2566,0,0,0-1.0219-.7774c-1.5088-.23-3.0013-.5661-4.5091-.8041-.6777-.107-.7819-.3265-.4926-.9445.647-1.3823,1.2067-2.8052,1.84-4.1941a1.1926,1.1926,0,0,0-.0584-1.203c-.7728-1.3839-1.4949-2.7961-2.2617-4.1833-.2429-.4393-.1956-.6351.3208-.7662,1.5074-.3828,3-.8235,4.5065-1.21a1.34,1.34,0,0,0,1.0414-.8841c.5349-1.3676,1.1918-2.6883,1.7053-4.0632.3007-.8049.5827-.7561,1.1786-.2864,1.1545.91,2.381,1.728,3.55,2.6208a1.2609,1.2609,0,0,0,1.2692.218c1.4616-.4391,2.9451-.8049,4.4122-1.2265.5188-.1492.7692-.1114.7836.5312.0355,1.5857.15,3.1694.2046,4.7548a1.1512,1.1512,0,0,0,.55.9925c1.2728.8975,2.5122,1.8422,3.7854,2.739.4619.3253.5517.5323.0554.9372-1.162.9479-2.2633,1.97-3.4162,2.9295a1.4367,1.4367,0,0,0-.5924,1.3259c.1039,1.5537.1385,3.112.2028,4.6685C41.2219,65.1668,41.25,65.5083,40.968,65.4321Zm-7.992-3.0628a6.452,6.452,0,1,0-6.4615-6.4431A6.5055,6.5055,0,0,0,32.976,62.3693Z" fill="#414042"/></g></svg>