<svg xmlns="http://www.w3.org/2000/svg" xmlns:xlink="http://www.w3.org/1999/xlink" viewBox="0 0 125 125"><defs><linearGradient id="Silver_04" x1="1.2431" y1="62.5" x2="123.7569" y2="62.5" gradientUnits="userSpaceOnUse"><stop offset="0" stop-color="#cbd1d6"/><stop offset="0.0891" stop-color="#c7ced2"/><stop offset="0.1696" stop-color="#bcc3c7"/><stop offset="0.2468" stop-color="#aab1b5"/><stop offset="0.2477" stop-color="#aab1b5"/><stop offset="0.2905" stop-color="#cad1d5"/><stop offset="0.3318" stop-color="#e1e8ec"/><stop offset="0.3706" stop-color="#eff6f9"/><stop offset="0.4045" stop-color="#f4fbfe"/><stop offset="0.6348" stop-color="#f4fbfe"/><stop offset="0.7528" stop-color="#979da1"/><stop offset="0.8258" stop-color="#b0b7bc"/><stop offset="0.8472" stop-color="#959b9f"/><stop offset="0.8706" stop-color="#7d8387"/><stop offset="0.8923" stop-color="#6f7478"/><stop offset="0.9101" stop-color="#6a6f73"/><stop offset="0.9251" stop-color="#71767a"/><stop offset="0.947" stop-color="#84898e"/><stop offset="0.9732" stop-color="#a4a9ae"/><stop offset="1" stop-color="#cbd1d6"/></linearGradient><linearGradient id="linear-gradient" x1="3.2259" y1="132.0731" x2="139.7861" y2="-28.2147" gradientTransform="translate(0 125) rotate(-90)" xlink:href="#Silver_04"/><linearGradient id="linear-gradient-2" x1="143.8277" y1="143.8277" x2="-14.9804" y2="-14.9804" gradientTransform="translate(0 125) rotate(-90)" xlink:href="#Silver_04"/></defs><g id="BUTTON"><rect x="1.2431" y="1.2431" width="122.5138" height="122.5138" rx="19.0552" fill="url(#Silver_04)"/><path d="M20.2983,2.7432h84.4033a17.5552,17.5552,0,0,1,17.5552,17.5552v84.4033a17.5552,17.5552,0,0,1-17.5552,17.5552H20.2979A17.5547,17.5547,0,0,1,2.7432,104.7021V20.2983A17.5552,17.5552,0,0,1,20.2983,2.7432Z" transform="translate(125 0) rotate(90)" fill="url(#linear-gradient)"/><path d="M20.2983,4.7432h84.4033a15.5552,15.5552,0,0,1,15.5552,15.5552v84.4038a15.5547,15.5547,0,0,1-15.5547,15.5547H20.2979A15.5547,15.5547,0,0,1,4.7432,104.7021V20.2983A15.5552,15.5552,0,0,1,20.2983,4.7432Z" transform="translate(125 0) rotate(90)" fill="url(#linear-gradient-2)"/><path d="M20.2983,6.2432h84.4033a14.0552,14.0552,0,0,1,14.0552,14.0552v84.4038a14.0547,14.0547,0,0,1-14.0547,14.0547H20.2979A14.0547,14.0547,0,0,1,6.2432,104.7021V20.2983A14.0552,14.0552,0,0,1,20.2983,6.2432Z" transform="translate(125) rotate(90)" fill="#d1d3d4"/><path d="M104.7021,119.0068H20.2983A14.3212,14.3212,0,0,1,5.9932,104.7021V20.2983A14.3215,14.3215,0,0,1,20.2983,5.9932h84.4038a14.3212,14.3212,0,0,1,14.3047,14.3051v84.4038A14.3208,14.3208,0,0,1,104.7021,119.0068ZM20.2983,6.4932A13.8206,13.8206,0,0,0,6.4932,20.2983v84.4038a13.82,13.82,0,0,0,13.8051,13.8047h84.4038a13.82,13.82,0,0,0,13.8047-13.8047V20.2983A13.82,13.82,0,0,0,104.7021,6.4932Z" fill="#414042"/></g><g id="COOKING"><path d="M60.9584,107.0237c-3.6525.0055-7.2992-.1709-10.945-.37-.5593-.0306-.6942-.15-.7116-.7082-.0272-.8732-.0135-1.7475-.0286-2.6211-.0046-.2645.1043-.3556.3609-.3559a7.04,7.04,0,0,0,1.0728-.0558,1.8534,1.8534,0,0,0,1.6688-1.8843c.1355-6.2117.02-12.42-.2822-18.625-.0177-.3639.074-.8669-.5084-.8859s-.524.49-.5684.8512a38.1206,38.1206,0,0,0-.1986,4.019c-.0551,3.3546-.1311,6.7084-.2843,10.06a.5539.5539,0,0,1-.8436.504c-.2151-.0973-.14-.2952-.1475-.4509-.125-2.65-.2031-5.3013-.251-7.9537-.0349-1.9343-.0209-3.87-.1793-5.8a5.0426,5.0426,0,0,0-.1157-.7382c-.0631-.2688-.1752-.5176-.5189-.4975-.3529.0207-.4614.253-.4891.57-.117,1.338-.1461,2.68-.1818,4.0211-.0869,3.26-.1124,6.5215-.2743,9.7793-.0123.2483-.0538.4955-.0878.7424a.4342.4342,0,0,1-.4555.4344c-.3025.0094-.4251-.16-.45-.424-.0561-.5895-.1271-1.1792-.1466-1.77-.1311-3.9767-.2492-7.9539-.3755-11.9309-.0094-.2957-.06-.59-.0728-.8857a.487.487,0,0,0-.5148-.538c-.346-.01-.453.2386-.485.52-.06.5265-.1285,1.0545-.1441,1.5834C44.698,87.0742,44.611,90.5371,44.514,94c-.0236.8422-.0879,1.6839-.09,2.5258-.0009.4031-.1881.4552-.5173.4551s-.507-.05-.516-.4534c-.08-3.6035-.1845-7.2064-.274-10.81a32.9794,32.9794,0,0,0-.1728-3.3169,3.3116,3.3116,0,0,0-.0952-.457c-.0717-.2624-.2094-.4632-.52-.4334-.3272.0315-.426.2444-.4466.55-.122,1.8066-.1685,3.6161-.2167,5.4254-.118,4.43-.2153,8.861-.1528,13.2933a1.9424,1.9424,0,0,0,1.8352,2.1375c.169.0288.3391.0561.51.07,1.0613.0856.8951-.037.9379.981.02.4833.0512.9664.0587,1.45.0085.5434-.1476.712-.6907.7006a30.7652,30.7652,0,0,1-3.3929-.3825,64.3471,64.3471,0,0,1-13.4218-3.1093c-.4107-.148-.8161-.3119-1.2187-.4811a1.5663,1.5663,0,0,1-1.02-1.5735,25.5,25.5,0,0,1,1.2042-7.5955,30.1781,30.1781,0,0,1,1.9613-4.9545,18.51,18.51,0,0,1,8.3766-8.4628c4.1695-2.1026,8.5137-3.8077,12.824-5.5894.2726-.1127.3943.0084.5434.1882a32.2448,32.2448,0,0,0,2.1849,2.44,15.0816,15.0816,0,0,0,6.1567,3.806,13.4249,13.4249,0,0,0,12.2325-2A18.0042,18.0042,0,0,0,74.87,74.1794c.1418-.1984.2576-.3533.563-.226,4.3191,1.8,8.7007,3.46,12.8757,5.5864a18.5789,18.5789,0,0,1,8.4545,8.6421A29.7732,29.7732,0,0,1,99.89,100.3251a1.7945,1.7945,0,0,1-1.2555,1.9337,42.4585,42.4585,0,0,1-5.255,1.6783,86.146,86.146,0,0,1-13.0351,2.2646c-.45.05-.9012.0812-1.35.1346-.3408.0405-.5029-.1074-.5093-.4389-.0169-.8735-.03-1.747-.0457-2.6205a.4083.4083,0,0,1,.2076-.3885,10.0086,10.0086,0,0,0,4.4441-6.8273,15.1676,15.1676,0,0,0-1.0837-10.1827,10.5367,10.5367,0,0,0-1.2981-2.0519c-2.4891-3.0181-6.1372-3.136-8.7155-.1931a10.8029,10.8029,0,0,0-2.858,7.2872,28.0909,28.0909,0,0,0,.1059,4.5338,11.9137,11.9137,0,0,0,2.8791,6.0962,6.4153,6.4153,0,0,0,1.5645,1.2545.5426.5426,0,0,1,.3394.5063c-.0117.9986-.016,1.9976.0018,2.996.0061.3423-.1813.3628-.4376.3847-2.6138.2226-5.2343.2892-7.8552.3273C64.142,107.0425,62.55,107.0237,60.9584,107.0237Z" fill="#414042"/><path d="M62.7741,47.6465c-4.6656,0-9.3313.0063-13.9969-.0053a23.7748,23.7748,0,0,1-2.8972-.1446,6.6888,6.6888,0,0,1-.7352-.1353.6554.6554,0,0,1-.5443-.7529c.0185-.4356.0082-.8732-.006-1.3094a1.6385,1.6385,0,0,0-.8589-1.4308,9.12,9.12,0,0,1-4.2544-9.2659A9.0232,9.0232,0,0,1,46.45,27.241a9.7074,9.7074,0,0,1,5.1191.3425c.4424.1461.6008.0217.675-.3819.0761-.4141.1544-.8282.2474-1.2388a10.2339,10.2339,0,0,1,20.038.317c.0645.3369.1422.6712.2125,1.007.0736.3515.24.4266.6013.3109a9.3853,9.3853,0,0,1,6.8956.22A9.0339,9.0339,0,0,1,82.863,42.5532,7.7855,7.7855,0,0,1,80.99,44.019a1.1137,1.1137,0,0,0-.5847.9557c-.05.4962-.0589.9963-.0982,1.4937-.0625.79-.2686,1.0264-1.0577,1.0782-1.994.1309-3.9923.1187-5.9893.123-3.4954.0075-6.9908.0021-10.4862.0021Z" fill="#414042"/><path d="M44.686,56.8807c0-.4833-.0122-.967.0025-1.45A3.5106,3.5106,0,0,1,45.72,52.8986a1.4279,1.4279,0,0,0,.3824-1.0262c.02-.4982.0584-.996.0678-1.4943.0078-.4182.2323-.56.6163-.5951,1.3224-.1219,2.6492-.1343,3.9739-.1372q13.7349-.0307,27.47-.043c.43-.0009.5855.125.5605.5534-.0217.372.0325.7477.0315,1.1218a2.7653,2.7653,0,0,0,.8,2.0683,3.2186,3.2186,0,0,1,.6694,2.1468A13.7871,13.7871,0,0,1,76.695,66.22a8.1841,8.1841,0,0,0-1.4662,2.6939,16.0742,16.0742,0,0,1-4.8075,6.9641,12.5554,12.5554,0,0,1-6.7,2.9786,11.846,11.846,0,0,1-8.546-2.4956,16.08,16.08,0,0,1-5.403-7.3713,11.2222,11.2222,0,0,0-1.8564-3.217,14.3554,14.3554,0,0,1-3.08-6.2817A11.4244,11.4244,0,0,1,44.686,56.8807Z" fill="#414042"/></g></svg>