<svg xmlns="http://www.w3.org/2000/svg" xmlns:xlink="http://www.w3.org/1999/xlink" viewBox="0 0 125 125"><defs><linearGradient id="Silver_04" x1="1.2431" y1="62.5" x2="123.7569" y2="62.5" gradientUnits="userSpaceOnUse"><stop offset="0" stop-color="#cbd1d6"/><stop offset="0.0891" stop-color="#c7ced2"/><stop offset="0.1696" stop-color="#bcc3c7"/><stop offset="0.2468" stop-color="#aab1b5"/><stop offset="0.2477" stop-color="#aab1b5"/><stop offset="0.2905" stop-color="#cad1d5"/><stop offset="0.3318" stop-color="#e1e8ec"/><stop offset="0.3706" stop-color="#eff6f9"/><stop offset="0.4045" stop-color="#f4fbfe"/><stop offset="0.6348" stop-color="#f4fbfe"/><stop offset="0.7528" stop-color="#979da1"/><stop offset="0.8258" stop-color="#b0b7bc"/><stop offset="0.8472" stop-color="#959b9f"/><stop offset="0.8706" stop-color="#7d8387"/><stop offset="0.8923" stop-color="#6f7478"/><stop offset="0.9101" stop-color="#6a6f73"/><stop offset="0.9251" stop-color="#71767a"/><stop offset="0.947" stop-color="#84898e"/><stop offset="0.9732" stop-color="#a4a9ae"/><stop offset="1" stop-color="#cbd1d6"/></linearGradient><linearGradient id="linear-gradient" x1="3.2259" y1="132.0731" x2="139.7861" y2="-28.2147" gradientTransform="translate(0 125) rotate(-90)" xlink:href="#Silver_04"/><linearGradient id="linear-gradient-2" x1="143.8277" y1="143.8277" x2="-14.9804" y2="-14.9804" gradientTransform="translate(0 125) rotate(-90)" xlink:href="#Silver_04"/></defs><g id="BUTTON"><rect x="1.2431" y="1.2431" width="122.5138" height="122.5138" rx="19.0552" fill="url(#Silver_04)"/><path d="M20.2983,2.7432h84.4033a17.5552,17.5552,0,0,1,17.5552,17.5552v84.4033a17.5552,17.5552,0,0,1-17.5552,17.5552H20.2979A17.5547,17.5547,0,0,1,2.7432,104.7021V20.2983A17.5552,17.5552,0,0,1,20.2983,2.7432Z" transform="translate(125 0) rotate(90)" fill="url(#linear-gradient)"/><path d="M20.2983,4.7432h84.4033a15.5552,15.5552,0,0,1,15.5552,15.5552v84.4038a15.5547,15.5547,0,0,1-15.5547,15.5547H20.2979A15.5547,15.5547,0,0,1,4.7432,104.7021V20.2983A15.5552,15.5552,0,0,1,20.2983,4.7432Z" transform="translate(125 0) rotate(90)" fill="url(#linear-gradient-2)"/><path d="M20.2983,6.2432h84.4033a14.0552,14.0552,0,0,1,14.0552,14.0552v84.4038a14.0547,14.0547,0,0,1-14.0547,14.0547H20.2979A14.0547,14.0547,0,0,1,6.2432,104.7021V20.2983A14.0552,14.0552,0,0,1,20.2983,6.2432Z" transform="translate(125) rotate(90)" fill="#d1d3d4"/><path d="M104.7021,119.0068H20.2983A14.3212,14.3212,0,0,1,5.9932,104.7021V20.2983A14.3215,14.3215,0,0,1,20.2983,5.9932h84.4038a14.3212,14.3212,0,0,1,14.3047,14.3051v84.4038A14.3208,14.3208,0,0,1,104.7021,119.0068ZM20.2983,6.4932A13.8206,13.8206,0,0,0,6.4932,20.2983v84.4038a13.82,13.82,0,0,0,13.8051,13.8047h84.4038a13.82,13.82,0,0,0,13.8047-13.8047V20.2983A13.82,13.82,0,0,0,104.7021,6.4932Z" fill="#414042"/></g><g id="DESIGN"><path d="M18.6042,48.1249c.4419-4.3381.096-8.692.2608-13.0361.1233-3.252,1-4.2035,4.1994-4.2082q23.9834-.0351,47.9668-.018c.3193,0,.6386.0386,1.411.0883-1.2441,1.7735-2.28,3.3614-3.441,4.8522-.4848.6227-1.35.3012-2.04.3019-13.5845.0149-27.1692.0419-40.7533-.028-1.6831-.0087-2.1914.3689-2.18,2.1274q.1212,18.9136.0057,37.8282c-.009,1.6548.492,2.039,2.0835,2.0358q36.3662-.0726,72.7323.0092c1.7873.0047,2.1249-.5564,2.1163-2.205q-.0979-18.8163.0033-37.6332c.01-1.6934-.3886-2.2345-2.1425-2.1673-3.7619.144-7.5332.0441-11.3452.0441a7.8869,7.8869,0,0,1,6.9886-5.2575c2.4048.0129,4.8252.1949,7.21-.0186a4.2089,4.2089,0,0,1,4.7164,2.848v42.92a63.1018,63.1018,0,0,0-.2441,7.5795c-.1046,3.3651-.8536,4.2131-4.1441,4.2152q-39.5008.0248-79.0017-.0024c-3.2857-.0022-4.0214-.8444-4.1388-4.2137-.16-4.6062.1823-9.2214-.2629-13.8215Z" fill="#414042"/><path d="M93.34,23.1782c.2826,1.869-.7887,3.36-2.0175,4.7307Q83.7068,36.4028,76.03,44.8419C71.219,50.1323,66.3019,55.3287,61.5832,60.7c-1.6618,1.8915-2.5973.5925-3.8316-.293-1.2642-.907-1.5763-1.6939-.5222-3.1607,8.42-11.7152,16.749-23.4951,25.0945-35.2634a10.1632,10.1632,0,0,1,3.6616-3.4107C89.1993,16.9457,93.6912,18.3161,93.34,23.1782Zm-4.3685-3.8958a6.8312,6.8312,0,0,0-4.45,1.6314.7627.7627,0,0,0-.0149,1.303c.4233.3723.71.6035,1.2441.0224C86.6131,21.301,87.6253,20.5005,88.9714,19.2824Z" fill="#414042"/><path d="M41.0029,69.7118a8.0742,8.0742,0,0,1,1.6106-.387c3.3468.142,4.9763-1.7159,6.0262-4.6822C50.343,59.83,55.276,59.11,58.5305,63.0693c1.7949,2.1834,1.3453,4.2668-1.1938,5.5323C53.6573,70.4355,46.1147,71.0274,41.0029,69.7118Z" fill="#414042"/><path d="M75.5335,100.454H49.5075c-.0349-.2-.1148-.3931-.0685-.4306a9.3675,9.3675,0,0,0,3.8519-7.28c.022-.9017.73-.9194,1.4146-.9188q7.7936.0072,15.5871.0063c.5692.0007,1.319-.11,1.38.7.2325,3.1131,1.3136,5.762,4.2107,7.4952Z" fill="#414042"/></g></svg>