<svg xmlns="http://www.w3.org/2000/svg" xmlns:xlink="http://www.w3.org/1999/xlink" viewBox="0 0 125 125"><defs><linearGradient id="Silver_04" x1="1.2431" y1="62.5" x2="123.7569" y2="62.5" gradientUnits="userSpaceOnUse"><stop offset="0" stop-color="#cbd1d6"/><stop offset="0.0891" stop-color="#c7ced2"/><stop offset="0.1696" stop-color="#bcc3c7"/><stop offset="0.2468" stop-color="#aab1b5"/><stop offset="0.2477" stop-color="#aab1b5"/><stop offset="0.2905" stop-color="#cad1d5"/><stop offset="0.3318" stop-color="#e1e8ec"/><stop offset="0.3706" stop-color="#eff6f9"/><stop offset="0.4045" stop-color="#f4fbfe"/><stop offset="0.6348" stop-color="#f4fbfe"/><stop offset="0.7528" stop-color="#979da1"/><stop offset="0.8258" stop-color="#b0b7bc"/><stop offset="0.8472" stop-color="#959b9f"/><stop offset="0.8706" stop-color="#7d8387"/><stop offset="0.8923" stop-color="#6f7478"/><stop offset="0.9101" stop-color="#6a6f73"/><stop offset="0.9251" stop-color="#71767a"/><stop offset="0.947" stop-color="#84898e"/><stop offset="0.9732" stop-color="#a4a9ae"/><stop offset="1" stop-color="#cbd1d6"/></linearGradient><linearGradient id="linear-gradient" x1="3.2259" y1="132.0731" x2="139.7861" y2="-28.2147" gradientTransform="translate(0 125) rotate(-90)" xlink:href="#Silver_04"/><linearGradient id="linear-gradient-2" x1="143.8277" y1="143.8277" x2="-14.9804" y2="-14.9804" gradientTransform="translate(0 125) rotate(-90)" xlink:href="#Silver_04"/></defs><g id="BUTTON"><rect x="1.2431" y="1.2431" width="122.5138" height="122.5138" rx="19.0552" fill="url(#Silver_04)"/><path d="M20.2983,2.7432h84.4033a17.5552,17.5552,0,0,1,17.5552,17.5552v84.4033a17.5552,17.5552,0,0,1-17.5552,17.5552H20.2979A17.5547,17.5547,0,0,1,2.7432,104.7021V20.2983A17.5552,17.5552,0,0,1,20.2983,2.7432Z" transform="translate(125 0) rotate(90)" fill="url(#linear-gradient)"/><path d="M20.2983,4.7432h84.4033a15.5552,15.5552,0,0,1,15.5552,15.5552v84.4038a15.5547,15.5547,0,0,1-15.5547,15.5547H20.2979A15.5547,15.5547,0,0,1,4.7432,104.7021V20.2983A15.5552,15.5552,0,0,1,20.2983,4.7432Z" transform="translate(125 0) rotate(90)" fill="url(#linear-gradient-2)"/><path d="M20.2983,6.2432h84.4033a14.0552,14.0552,0,0,1,14.0552,14.0552v84.4038a14.0547,14.0547,0,0,1-14.0547,14.0547H20.2979A14.0547,14.0547,0,0,1,6.2432,104.7021V20.2983A14.0552,14.0552,0,0,1,20.2983,6.2432Z" transform="translate(125) rotate(90)" fill="#d1d3d4"/><path d="M104.7021,119.0068H20.2983A14.3212,14.3212,0,0,1,5.9932,104.7021V20.2983A14.3215,14.3215,0,0,1,20.2983,5.9932h84.4038a14.3212,14.3212,0,0,1,14.3047,14.3051v84.4038A14.3208,14.3208,0,0,1,104.7021,119.0068ZM20.2983,6.4932A13.8206,13.8206,0,0,0,6.4932,20.2983v84.4038a13.82,13.82,0,0,0,13.8051,13.8047h84.4038a13.82,13.82,0,0,0,13.8047-13.8047V20.2983A13.82,13.82,0,0,0,104.7021,6.4932Z" fill="#414042"/></g><g id="ICE_CREAM" data-name="ICE CREAM"><path d="M61.7867,64.0293c-3.67-.0307-7.3373-.12-10.9927-.4765a38.2181,38.2181,0,0,1-4.8265-.7571,5.8638,5.8638,0,0,1-2.3252-1.29,12.534,12.534,0,0,1-4.8292-8.3326A12.9,12.9,0,0,1,52.8963,38.5871,12.9407,12.9407,0,0,1,62.86,57.7a2.5773,2.5773,0,0,0-.3923,1.0523,1.6793,1.6793,0,0,0,1.1305,1.7111,1.6322,1.6322,0,0,0,1.916-.6426,13.7,13.7,0,0,0,1.429-3.077,16.3824,16.3824,0,0,0,.7921-7.0009A16.31,16.31,0,0,0,54.7724,35.464a15.393,15.393,0,0,0-4.5994-.2457c-.2879.0274-.3821-.0314-.43-.3373a12.7382,12.7382,0,0,1,6.5334-12.9739,12.3644,12.3644,0,0,1,11.9121-.2606A12.5409,12.5409,0,0,1,75.226,31.178a12.74,12.74,0,0,1,.0225,3.835c-.03.2361-.1565.225-.33.209a16.3164,16.3164,0,0,0-6.4218.6833,7.0562,7.0562,0,0,0-.9215.3406,1.6654,1.6654,0,0,0-.83,2.0724,1.6479,1.6479,0,0,0,1.9425,1.05c.7388-.1957,1.46-.4544,2.2141-.5983A12.8951,12.8951,0,0,1,86.13,49.2664a12.6654,12.6654,0,0,1-5.6986,12.9515,4.1,4.1,0,0,1-1.2015.4306,36.0621,36.0621,0,0,1-5.4667.8975C69.7809,63.9416,65.7855,64.0285,61.7867,64.0293Z" fill="#414042"/><path d="M62.4937,104.7561a1.74,1.74,0,0,1-1.631-1.14q-.5851-1.355-1.1751-2.7077c-1.0465-2.4057-2.0885-4.8134-3.1477-7.2135a.48.48,0,0,1,.1162-.6381q2.821-2.8092,5.6168-5.6437c.2017-.2044.3084-.2324.5293-.0092q2.779,2.8085,5.588,5.5873a.41.41,0,0,1,.1.54q-2.2033,5.04-4.39,10.087A1.7443,1.7443,0,0,1,62.4937,104.7561Z" fill="#414042"/><path d="M69.4252,75.3931c-.0132.115-.0964.1629-.1577.2246q-3.1026,3.1191-6.2092,6.2341c-.1716.1716-.3157.4859-.5427.4577-.19-.0236-.3517-.296-.52-.4642q-3.123-3.12-6.248-6.2374c-.1715-.1705-.1913-.2614-.0092-.4424q3.2683-3.2484,6.5178-6.5161c.1695-.17.2622-.19.4422-.0093q3.28,3.3,6.575,6.5855C69.3286,75.281,69.3787,75.3415,69.4252,75.3931Z" fill="#414042"/><path d="M53.1738,77.81c.0452.0393.1.0812.1479.1293q3.3334,3.3307,6.6689,6.6593c.1443.1438.1245.2232-.0078.3556Q57.5579,87.38,55.144,89.8161c-.1462.1475-.2157.1553-.3055-.052Q52.8178,85.0993,50.785,80.44a.2815.2815,0,0,1,.0508-.3693c.7226-.7114,1.4361-1.432,2.1534-2.1489A.2689.2689,0,0,1,53.1738,77.81Z" fill="#414042"/><path d="M74.2468,80.27c-.0238.06-.0475.1252-.0752.1887q-1.9932,4.5774-3.9826,9.1566c-.11.2553-.1783.257-.3685.0653q-2.32-2.3385-4.662-4.656c-.2012-.1988-.2117-.3008-.0045-.5073q3.242-3.23,6.4591-6.4854c.2-.2028.303-.1832.4882.0084.6493.6715,1.3175,1.3248,1.9774,1.9861C74.1467,80.0947,74.2377,80.15,74.2468,80.27Z" fill="#414042"/><path d="M78.8031,65.9785a.4649.4649,0,0,1-.1705.23q-3.28,3.2988-6.5586,6.5992c-.1679.1695-.2624.1983-.4454.0139q-2.6156-2.635-5.2463-5.2549c-.06-.06-.1754-.1129-.1439-.2061.0339-.1.1555-.0548.2384-.0586A90.7883,90.7883,0,0,0,78.29,66.0237c.1466-.0262.2946-.0445.4423-.0643A.24.24,0,0,1,78.8031,65.9785Z" fill="#414042"/><path d="M46.2915,66.0358c.47.07.937.1379,1.4038.2094q3.5385.5423,7.1067.8294c1.239.0982,2.4788.18,3.7205.2322.0731.0031.1789-.0332.2066.0661.02.07-.0646.1166-.1124.1644q-2.6474,2.649-5.2934,5.2994c-.1413.142-.2229.1291-.3574-.0059q-3.2754-3.287-6.5579-6.5668C46.3556,66.2115,46.2739,66.1715,46.2915,66.0358Z" fill="#414042"/><path d="M47.0215,71.7143c.0889-.0108.1207.0477.16.0874,1.1245,1.1235,2.2452,2.2508,3.375,3.369.16.1584.1873.2543.0079.4213-.3924.3653-.7653.7519-1.1405,1.1353-.12.1221-.1877.1461-.2683-.04q-1.0529-2.4337-2.1159-4.863A.4615.4615,0,0,1,47.0215,71.7143Z" fill="#414042"/><path d="M77.9276,71.8035c-.1118.26-.2228.52-.3355.78-.585,1.3469-1.1734,2.6922-1.7525,4.0417-.091.2122-.1574.26-.3357.07-.36-.3835-.7373-.75-1.1132-1.1183-.1087-.1063-.1515-.18-.0192-.3113q1.7192-1.7121,3.4271-3.4357A.0982.0982,0,0,1,77.9276,71.8035Z" fill="#414042"/></g></svg>