<svg xmlns="http://www.w3.org/2000/svg" xmlns:xlink="http://www.w3.org/1999/xlink" viewBox="0 0 125 125"><defs><linearGradient id="Silver_04" x1="1.2431" y1="62.5" x2="123.7569" y2="62.5" gradientUnits="userSpaceOnUse"><stop offset="0" stop-color="#cbd1d6"/><stop offset="0.0891" stop-color="#c7ced2"/><stop offset="0.1696" stop-color="#bcc3c7"/><stop offset="0.2468" stop-color="#aab1b5"/><stop offset="0.2477" stop-color="#aab1b5"/><stop offset="0.2905" stop-color="#cad1d5"/><stop offset="0.3318" stop-color="#e1e8ec"/><stop offset="0.3706" stop-color="#eff6f9"/><stop offset="0.4045" stop-color="#f4fbfe"/><stop offset="0.6348" stop-color="#f4fbfe"/><stop offset="0.7528" stop-color="#979da1"/><stop offset="0.8258" stop-color="#b0b7bc"/><stop offset="0.8472" stop-color="#959b9f"/><stop offset="0.8706" stop-color="#7d8387"/><stop offset="0.8923" stop-color="#6f7478"/><stop offset="0.9101" stop-color="#6a6f73"/><stop offset="0.9251" stop-color="#71767a"/><stop offset="0.947" stop-color="#84898e"/><stop offset="0.9732" stop-color="#a4a9ae"/><stop offset="1" stop-color="#cbd1d6"/></linearGradient><linearGradient id="linear-gradient" x1="3.2259" y1="132.0731" x2="139.7861" y2="-28.2147" gradientTransform="translate(0 125) rotate(-90)" xlink:href="#Silver_04"/><linearGradient id="linear-gradient-2" x1="143.8277" y1="143.8277" x2="-14.9804" y2="-14.9804" gradientTransform="translate(0 125) rotate(-90)" xlink:href="#Silver_04"/></defs><g id="BUTTON"><rect x="1.2431" y="1.2431" width="122.5138" height="122.5138" rx="19.0552" fill="url(#Silver_04)"/><path d="M20.2983,2.7432h84.4033a17.5552,17.5552,0,0,1,17.5552,17.5552v84.4033a17.5552,17.5552,0,0,1-17.5552,17.5552H20.2979A17.5547,17.5547,0,0,1,2.7432,104.7021V20.2983A17.5552,17.5552,0,0,1,20.2983,2.7432Z" transform="translate(125 0) rotate(90)" fill="url(#linear-gradient)"/><path d="M20.2983,4.7432h84.4033a15.5552,15.5552,0,0,1,15.5552,15.5552v84.4038a15.5547,15.5547,0,0,1-15.5547,15.5547H20.2979A15.5547,15.5547,0,0,1,4.7432,104.7021V20.2983A15.5552,15.5552,0,0,1,20.2983,4.7432Z" transform="translate(125 0) rotate(90)" fill="url(#linear-gradient-2)"/><path d="M20.2983,6.2432h84.4033a14.0552,14.0552,0,0,1,14.0552,14.0552v84.4038a14.0547,14.0547,0,0,1-14.0547,14.0547H20.2979A14.0547,14.0547,0,0,1,6.2432,104.7021V20.2983A14.0552,14.0552,0,0,1,20.2983,6.2432Z" transform="translate(125) rotate(90)" fill="#d1d3d4"/><path d="M104.7021,119.0068H20.2983A14.3212,14.3212,0,0,1,5.9932,104.7021V20.2983A14.3215,14.3215,0,0,1,20.2983,5.9932h84.4038a14.3212,14.3212,0,0,1,14.3047,14.3051v84.4038A14.3208,14.3208,0,0,1,104.7021,119.0068ZM20.2983,6.4932A13.8206,13.8206,0,0,0,6.4932,20.2983v84.4038a13.82,13.82,0,0,0,13.8051,13.8047h84.4038a13.82,13.82,0,0,0,13.8047-13.8047V20.2983A13.82,13.82,0,0,0,104.7021,6.4932Z" fill="#414042"/></g><g id="MOVIE"><path d="M21.4029,63.5032a22.01,22.01,0,0,0,7.5084,3.5895c9.1162,2.132,16.7676-.3846,22.941-7.403a3.2091,3.2091,0,0,1,4.4246-.13A26.3765,26.3765,0,0,0,89.0761,64.09c1.1754-.6937,1.1936-.6937,1.194.73q.0044,16.2474-.0107,32.495a4.9981,4.9981,0,0,1-5.34,5.3552q-29.056.0178-58.1121,0c-3.3584-.002-5.4459-2.0669-5.45-5.3775q-.0212-16.4256-.0033-32.8513C21.3543,64.209,21.3776,63.9766,21.4029,63.5032ZM68.7676,80.5045a1.3577,1.3577,0,0,0-.2652-.2386c-5.7988-2.888-11.6061-5.7591-17.395-8.667-1.0664-.5357-.8846.1713-.88.7566q.0662,8.3032.1394,16.6065c.0122,1.3281.0255,1.3324,1.174.73q8.1332-4.2675,16.262-8.5431C68.1391,80.9717,68.54,80.8776,68.7676,80.5045Z" fill="#414042"/><path d="M75.4428,65.3761a21.528,21.528,0,1,1,21.5733-21.219C96.8692,55.8557,87.0058,65.5571,75.4428,65.3761ZM64.3256,54.56a4.2547,4.2547,0,0,0,4.2283-4.2251,4.26,4.26,0,1,0-8.5208-.0448A4.2292,4.2292,0,0,0,64.3256,54.56ZM86.7169,33.1578a4.2668,4.2668,0,0,0-4.3191,4.2528A4.34,4.34,0,0,0,86.63,41.6663,4.2393,4.2393,0,0,0,90.9088,37.5,4.1818,4.1818,0,0,0,86.7169,33.1578Zm4.1824,17.1351a4.2565,4.2565,0,0,0-4.1931-4.2511,4.3408,4.3408,0,0,0-4.3116,4.298,4.2711,4.2711,0,0,0,4.2377,4.2161A4.1677,4.1677,0,0,0,90.8993,50.2929ZM64.2326,33.155a4.2138,4.2138,0,0,0-4.2,4.23,4.2608,4.2608,0,1,0,8.5215.0135A4.2446,4.2446,0,0,0,64.2326,33.155ZM75.4238,61.0044A4.1738,4.1738,0,0,0,79.7212,56.77a4.26,4.26,0,0,0-4.1868-4.2627,4.3243,4.3243,0,0,0-4.3278,4.2753A4.2482,4.2482,0,0,0,75.4238,61.0044Zm4.3028-30.0369a4.2422,4.2422,0,0,0-4.2693-4.2956,4.249,4.249,0,1,0,.0435,8.4978A4.2138,4.2138,0,0,0,79.7266,30.9675ZM75.4631,46.2881a2.4379,2.4379,0,1,0,.0262-4.8757,2.4379,2.4379,0,0,0-.0262,4.8757Z" fill="#414042"/><path d="M34.8348,30.6852A17.3408,17.3408,0,1,1,17.3126,47.51,17.346,17.346,0,0,1,34.8348,30.6852Zm3.2142,7a3.408,3.408,0,1,0-6.8143-.137,3.4078,3.4078,0,1,0,6.8143.137Zm-.0018,20.7083a3.4063,3.4063,0,1,0-6.8118.1045,3.4064,3.4064,0,1,0,6.8118-.1045Zm9.0214-15.5918a3.409,3.409,0,1,0-6.8176.0449,3.4089,3.4089,0,1,0,6.8176-.0449ZM29.0349,53.2493a3.41,3.41,0,1,0-3.4855,3.4213A3.404,3.404,0,0,0,29.0349,53.2493Zm11.2193-.0448a3.4079,3.4079,0,1,0,3.375-3.3848A3.3781,3.3781,0,0,0,40.2542,53.2045ZM29.03,42.9294a3.4058,3.4058,0,1,0-3.57,3.3151A3.4185,3.4185,0,0,0,29.03,42.9294ZM36.58,48.0785a1.9477,1.9477,0,0,0-1.8628-2.0331,1.9814,1.9814,0,0,0-2.0283,2,1.9456,1.9456,0,1,0,3.8911.033Z" fill="#414042"/><path d="M107.6922,63.2565v34.86c-.4912.072-.7981-.2228-1.1333-.3978-4.3373-2.2651-8.6615-4.5557-13.0077-6.8037a1.3309,1.3309,0,0,1-.8382-1.3685c.0236-5.9246.0145-11.8495.0082-17.7742-.0006-.5654.0066-1.0287.6508-1.3527,4.5828-2.3046,9.143-4.6542,13.7132-6.9837A3.7289,3.7289,0,0,1,107.6922,63.2565Z" fill="#414042"/></g></svg>