<svg xmlns="http://www.w3.org/2000/svg" xmlns:xlink="http://www.w3.org/1999/xlink" viewBox="0 0 125 125"><defs><linearGradient id="Silver_04" x1="1.2431" y1="62.5" x2="123.7569" y2="62.5" gradientUnits="userSpaceOnUse"><stop offset="0" stop-color="#cbd1d6"/><stop offset="0.0891" stop-color="#c7ced2"/><stop offset="0.1696" stop-color="#bcc3c7"/><stop offset="0.2468" stop-color="#aab1b5"/><stop offset="0.2477" stop-color="#aab1b5"/><stop offset="0.2905" stop-color="#cad1d5"/><stop offset="0.3318" stop-color="#e1e8ec"/><stop offset="0.3706" stop-color="#eff6f9"/><stop offset="0.4045" stop-color="#f4fbfe"/><stop offset="0.6348" stop-color="#f4fbfe"/><stop offset="0.7528" stop-color="#979da1"/><stop offset="0.8258" stop-color="#b0b7bc"/><stop offset="0.8472" stop-color="#959b9f"/><stop offset="0.8706" stop-color="#7d8387"/><stop offset="0.8923" stop-color="#6f7478"/><stop offset="0.9101" stop-color="#6a6f73"/><stop offset="0.9251" stop-color="#71767a"/><stop offset="0.947" stop-color="#84898e"/><stop offset="0.9732" stop-color="#a4a9ae"/><stop offset="1" stop-color="#cbd1d6"/></linearGradient><linearGradient id="linear-gradient" x1="3.2259" y1="132.0731" x2="139.7861" y2="-28.2147" gradientTransform="translate(0 125) rotate(-90)" xlink:href="#Silver_04"/><linearGradient id="linear-gradient-2" x1="143.8277" y1="143.8277" x2="-14.9804" y2="-14.9804" gradientTransform="translate(0 125) rotate(-90)" xlink:href="#Silver_04"/></defs><g id="BUTTON"><rect x="1.2431" y="1.2431" width="122.5138" height="122.5138" rx="19.0552" fill="url(#Silver_04)"/><path d="M20.2983,2.7432h84.4033a17.5552,17.5552,0,0,1,17.5552,17.5552v84.4033a17.5552,17.5552,0,0,1-17.5552,17.5552H20.2979A17.5547,17.5547,0,0,1,2.7432,104.7021V20.2983A17.5552,17.5552,0,0,1,20.2983,2.7432Z" transform="translate(125 0) rotate(90)" fill="url(#linear-gradient)"/><path d="M20.2983,4.7432h84.4033a15.5552,15.5552,0,0,1,15.5552,15.5552v84.4038a15.5547,15.5547,0,0,1-15.5547,15.5547H20.2979A15.5547,15.5547,0,0,1,4.7432,104.7021V20.2983A15.5552,15.5552,0,0,1,20.2983,4.7432Z" transform="translate(125 0) rotate(90)" fill="url(#linear-gradient-2)"/><path d="M20.2983,6.2432h84.4033a14.0552,14.0552,0,0,1,14.0552,14.0552v84.4038a14.0547,14.0547,0,0,1-14.0547,14.0547H20.2979A14.0547,14.0547,0,0,1,6.2432,104.7021V20.2983A14.0552,14.0552,0,0,1,20.2983,6.2432Z" transform="translate(125) rotate(90)" fill="#d1d3d4"/><path d="M104.7021,119.0068H20.2983A14.3212,14.3212,0,0,1,5.9932,104.7021V20.2983A14.3215,14.3215,0,0,1,20.2983,5.9932h84.4038a14.3212,14.3212,0,0,1,14.3047,14.3051v84.4038A14.3208,14.3208,0,0,1,104.7021,119.0068ZM20.2983,6.4932A13.8206,13.8206,0,0,0,6.4932,20.2983v84.4038a13.82,13.82,0,0,0,13.8051,13.8047h84.4038a13.82,13.82,0,0,0,13.8047-13.8047V20.2983A13.82,13.82,0,0,0,104.7021,6.4932Z" fill="#414042"/></g><g id="NETFLIX"><circle cx="62.5" cy="62.5" r="50.1089" fill="#001919"/><path d="M45.1316,22.5906l.68-.0064,4.2471-.0059,1.0043.1645a16.63,16.63,0,0,1,.3068,4.0442q.0076,15.2925.0412,30.585L51.43,79.3834l-.0009,5.5714.0039,4.2723-.01,4.9166.002,5.2548c-.0435.69.0067,1.4516-1.0476,1.368a37.7616,37.7616,0,0,0-5.258.9489l-4.59.7135q-.6576-.0345-1.3146-.0689c.02-.3265.0564-.6532.0564-.98q-.0025-39.3252-.0106-78.65l.9559-.14Z" fill="#e60615"/><path d="M85.7643,94.7569l-1.2686.3329a36.8385,36.8385,0,0,0-5.9585.9693,16.4722,16.4722,0,0,0-3.872.7046l-.9659-.1466q-.01-3.108-.02-6.2157-.03-14.0662-.0582-28.1329.0027-3.75.0052-7.5-.0059-2.458-.0116-4.9162L73.62,45.58l-.0007-5.5714-.0015-4.2724.0019-5.5711-.0009-4.2725a23.9147,23.9147,0,0,0,.04-2.4418c-.0661-.834.4746-.813,1.0046-.88l4.2485.0128.676.0072,5.5534-.0054q.3222.0708.6445.1414Q85.7745,58.7418,85.7643,94.7569Z" fill="#e60615"/><path d="M73.6212,62.2689q.0289,14.0662.0584,28.1325.0066,3.1078.02,6.2157c-.0778.02-.1564.0373-.2349.0525q-.2288-.44-.4591-.8808a4.5838,4.5838,0,0,0-.9542-1.6782,41.0676,41.0676,0,0,0-2.95-5.2462,19.5627,19.5627,0,0,0-2-3.5791l-3.445-6.19a25.883,25.883,0,0,0-2.4444-4.305l-.1152-.331a1.4689,1.4689,0,0,0-.5364-.9624l-.4077-.6562a8.3043,8.3043,0,0,0-1.53-2.6472c-2.24-4.366-4.6081-8.66-7.2117-12.8217q-.0236-15.2925-.0412-30.585a16.63,16.63,0,0,0-.3068-4.0442c.7775.0254.6479.8854,1.1078,1.2028l.1974.2526.0266.0532L55.6381,30.16l2.9542,5.2267a17.6416,17.6416,0,0,0,1.9436,3.4343l-.0027.1491.1289.0748.5438.98-.0078-.0121.1284.3146.206.3564,5.5564,9.8484a22.8479,22.8479,0,0,0,2.3468,4.2024l.2382.4082-.03.13.1342.0481.0548.0794a27.3176,27.3176,0,0,0,2.542,4.6127Z" fill="#b00827"/></g></svg>